<?xml version="1.0" encoding="UTF-8" standalone="no"?>
<!-- Created with Inkscape (http://www.inkscape.org/) -->

<svg
   xmlns:dc="http://purl.org/dc/elements/1.1/"
   xmlns:cc="http://creativecommons.org/ns#"
   xmlns:rdf="http://www.w3.org/1999/02/22-rdf-syntax-ns#"
   xmlns:svg="http://www.w3.org/2000/svg"
   xmlns="http://www.w3.org/2000/svg"
   xmlns:sodipodi="http://sodipodi.sourceforge.net/DTD/sodipodi-0.dtd"
   xmlns:inkscape="http://www.inkscape.org/namespaces/inkscape"
   id="svg2"
   version="1.1"
   inkscape:version="0.91 r13725"
   xml:space="preserve"
   width="1051.25"
   height="743.75"
   viewBox="0 0 1051.25 743.75"
   sodipodi:docname="ext_inp.svg"><metadata
     id="metadata8"><rdf:RDF><cc:Work
         rdf:about=""><dc:format>image/svg+xml</dc:format><dc:type
           rdf:resource="http://purl.org/dc/dcmitype/StillImage" /><dc:title></dc:title></cc:Work></rdf:RDF></metadata><defs
     id="defs6"><clipPath
       clipPathUnits="userSpaceOnUse"
       id="clipPath20"><path
         d="m 0,0 841.68,0 0,595.44 L 0,595.44 0,0 Z"
         id="path22"
         inkscape:connector-curvature="0" /></clipPath><clipPath
       clipPathUnits="userSpaceOnUse"
       id="clipPath36"><path
         d="m 49.87,37.26 735.12,0 0,501.48 -735.12,0 0,-501.48 z"
         id="path38"
         inkscape:connector-curvature="0" /></clipPath></defs><sodipodi:namedview
     pagecolor="#ffffff"
     bordercolor="#666666"
     borderopacity="1"
     objecttolerance="10"
     gridtolerance="10"
     guidetolerance="10"
     inkscape:pageopacity="0"
     inkscape:pageshadow="2"
     inkscape:window-width="1920"
     inkscape:window-height="1023"
     id="namedview4"
     showgrid="false"
     inkscape:zoom="0.29203329"
     inkscape:cx="525.625"
     inkscape:cy="371.875"
     inkscape:window-x="0"
     inkscape:window-y="0"
     inkscape:window-maximized="1"
     inkscape:current-layer="g10" /><g
     id="g10"
     inkscape:groupmode="layer"
     inkscape:label="ext_inp"
     transform="matrix(1.25,0,0,-1.25,0,743.75)"><g
       id="g12" /><g
       id="g14" /><g
       id="g16"><g
         id="g18"
         clip-path="url(#clipPath20)"><path
           d="m 0,0 841.68,0 0,595.44 L 0,595.44 0,0 Z"
           style="fill:#ffffff;fill-opacity:1;fill-rule:nonzero;stroke:#ffffff;stroke-width:1.05999994;stroke-linecap:round;stroke-linejoin:round;stroke-miterlimit:10;stroke-dasharray:none;stroke-opacity:1"
           id="path24"
           inkscape:connector-curvature="0" /></g></g><g
       id="g26" /><g
       id="g28" /><g
       id="g30" /><g
       id="g32"><g
         id="g34"
         clip-path="url(#clipPath36)"><path
           d="m 49.87,37.26 735.12,0 0,501.48 -735.12,0 0,-501.48 z"
           style="fill:#ffffff;fill-opacity:1;fill-rule:nonzero;stroke:none"
           id="path40"
           inkscape:connector-curvature="0" /><path
           d="m 49.87,120.84 735.12,0"
           style="fill:none;stroke:#fafafa;stroke-width:1.05999994;stroke-linecap:butt;stroke-linejoin:round;stroke-miterlimit:10;stroke-dasharray:none;stroke-opacity:1"
           id="path42"
           inkscape:connector-curvature="0" /><path
           d="m 49.87,288 735.12,0"
           style="fill:none;stroke:#fafafa;stroke-width:1.05999994;stroke-linecap:butt;stroke-linejoin:round;stroke-miterlimit:10;stroke-dasharray:none;stroke-opacity:1"
           id="path44"
           inkscape:connector-curvature="0" /><path
           d="m 49.87,455.17 735.12,0"
           style="fill:none;stroke:#fafafa;stroke-width:1.05999994;stroke-linecap:butt;stroke-linejoin:round;stroke-miterlimit:10;stroke-dasharray:none;stroke-opacity:1"
           id="path46"
           inkscape:connector-curvature="0" /><path
           d="m 167.39,37.26 0,501.49"
           style="fill:none;stroke:#fafafa;stroke-width:1.05999994;stroke-linecap:butt;stroke-linejoin:round;stroke-miterlimit:10;stroke-dasharray:none;stroke-opacity:1"
           id="path48"
           inkscape:connector-curvature="0" /><path
           d="m 409.93,37.26 0,501.49"
           style="fill:none;stroke:#fafafa;stroke-width:1.05999994;stroke-linecap:butt;stroke-linejoin:round;stroke-miterlimit:10;stroke-dasharray:none;stroke-opacity:1"
           id="path50"
           inkscape:connector-curvature="0" /><path
           d="m 659.97,37.26 0,501.49"
           style="fill:none;stroke:#fafafa;stroke-width:1.05999994;stroke-linecap:butt;stroke-linejoin:round;stroke-miterlimit:10;stroke-dasharray:none;stroke-opacity:1"
           id="path52"
           inkscape:connector-curvature="0" /><path
           d="m 49.87,37.26 735.12,0"
           style="fill:none;stroke:#e5e5e5;stroke-width:0.43000001;stroke-linecap:butt;stroke-linejoin:round;stroke-miterlimit:10;stroke-dasharray:none;stroke-opacity:1"
           id="path54"
           inkscape:connector-curvature="0" /><path
           d="m 49.87,204.42 735.12,0"
           style="fill:none;stroke:#e5e5e5;stroke-width:0.43000001;stroke-linecap:butt;stroke-linejoin:round;stroke-miterlimit:10;stroke-dasharray:none;stroke-opacity:1"
           id="path56"
           inkscape:connector-curvature="0" /><path
           d="m 49.87,371.59 735.12,0"
           style="fill:none;stroke:#e5e5e5;stroke-width:0.43000001;stroke-linecap:butt;stroke-linejoin:round;stroke-miterlimit:10;stroke-dasharray:none;stroke-opacity:1"
           id="path58"
           inkscape:connector-curvature="0" /><path
           d="m 49.87,538.75 735.12,0"
           style="fill:none;stroke:#e5e5e5;stroke-width:0.43000001;stroke-linecap:butt;stroke-linejoin:round;stroke-miterlimit:10;stroke-dasharray:none;stroke-opacity:1"
           id="path60"
           inkscape:connector-curvature="0" /><path
           d="m 49.87,37.26 0,501.49"
           style="fill:none;stroke:#e5e5e5;stroke-width:0.43000001;stroke-linecap:butt;stroke-linejoin:round;stroke-miterlimit:10;stroke-dasharray:none;stroke-opacity:1"
           id="path62"
           inkscape:connector-curvature="0" /><path
           d="m 284.91,37.26 0,501.49"
           style="fill:none;stroke:#e5e5e5;stroke-width:0.43000001;stroke-linecap:butt;stroke-linejoin:round;stroke-miterlimit:10;stroke-dasharray:none;stroke-opacity:1"
           id="path64"
           inkscape:connector-curvature="0" /><path
           d="m 534.95,37.26 0,501.49"
           style="fill:none;stroke:#e5e5e5;stroke-width:0.43000001;stroke-linecap:butt;stroke-linejoin:round;stroke-miterlimit:10;stroke-dasharray:none;stroke-opacity:1"
           id="path66"
           inkscape:connector-curvature="0" /><path
           d="m 784.99,37.26 0,501.49"
           style="fill:none;stroke:#e5e5e5;stroke-width:0.43000001;stroke-linecap:butt;stroke-linejoin:round;stroke-miterlimit:10;stroke-dasharray:none;stroke-opacity:1"
           id="path68"
           inkscape:connector-curvature="0" /><path
           d="m 49.87,37.31 1,0 1,0 1,0 1,0 1,0 1,0.02 1,0 1,0 1,0 1,0 1,0 1,0 1,0 1,0 1,0 1,0.02 1,0 1,0 1,0 1,0 1,0 1,0 1,0 1,0 1,0 1,0.01 1,0 1.01,0 1,0 1,0 1,0 1,0.02 1,0 1,0 1,0.02 1,0 1,0.03 1,-0.02 1,0 1,0 1,0.02 1,0 1,0 1,0 1,0 1,0.02 1,0 1,0 1,0 1,0.01 1,0.02 1,0.02 1,0 1,0 1,0 1,0 1,0.01 1,0.02 1,0 1,0.02 1,0 1,0.01 1,0 1,0 1,0.1 1,-0.01 1,0 1,0.01 1,0 1,0.02 1,0.07 1,0 1,0.01 1,0.02 1,0.03 1,0.02 1,0.03 1,0.02 1,0.03 1,0.07 1,0 1,0.05 1,0.02 1,0.05 1,0.07 1,0 1,0.05 1,0.03 1,0.17 1,0.03 1.01,0.08 1,0.02 1,0.02 1,0.08 1,0.13 1,0.07 1,0.03 1,0.12 1,0.13 1,0.12 1,0.05 1,0.14 1,0.08 1,0.12 1,0.09 1,0.15 1,0.28 1,0.19 1,-0.17 1,0.23 1,0.05 1,0.05 1,0.03 1,0.23 1,0.44 1,0.11 1,0.22 1,0.27 1,0.05 1,0.03 1,0.07 1,0.23 1,0.54 1,0 1,0.48 1,0.27 1,0.03 1,-0.06 1,0.21 1,0.39 1,0.22 1,0.35 1,0.42 1,0.7 1,0.45 1,0.3 1,0.23 1,0.86 1,0.11 1,0.66 1,0.73 1,1.29 1,-0.57 1,0.58 1,0.57 1,0.29 1,0.72 1,1.07 1,-1.56 1,-0.2 1,1.05 1,0.91 1,-0.32 1.01,-2.17 1,2.1 1,-2.15 1,0.7 1,2.09 1,-0.12 1,0.2 1,0.13 1,1.33 1,0.05 1,1.33 1,-1.54 1,-1.88 1,-1.56 1,0.77 1,1.34 1,0.9 1,1.72 1,1.32 1,-1.12 1,0.84 1,1.79 1,0.58 1,0.14 1,0.81 1,-0.13 1,-3.73 1,1.31 1,2.57 1,1.29 1,-0.84 1,3.53 1,2.31 1,0.46 1,0.76 1,0.4 1,2.97 1,2.26 1,1.54 1,1 1,2.21 1,1.92 1,0.28 1,1.78 1,2.47 1,2.67 1,2.29 1,2.68 1,1.77 1,2.96 1,3.54 1,4.62 1,2.59 1,2.81 1,3.94 1,0.15 1,-0.48 1,4.48 1,2.44 1,1.27 1,4.71 1,-0.92 1,-2.74 1.01,-0.68 1,-0.29 1,3.01 1,2.58 1,2.77 1,2.39 1,3.53 1,2.09 1,0.92 1,1.52 1,-1.96 1,0.1 1,1.97 1,2.18 1,2.3 1,1.83 1,-0.52 1,-0.32 1,2.78 1,2.69 1,0.88 1,5.64 1,6.45 1,5 1,3.18 1,3.19 1,3.2 1,3.19 1,3.19 1,4.37 1,4.37 1,4.36 1,4.37 1,4.36 1,4.37 1,4.37 1,4.36 1,4.37 1,4.37 1,3.84 1,3.85 1,3.85 1,3.84 1,3.85 1,3.85 1,3.85 1,3.84 1,3.85 1,3.85 1,4.93 1,4.92 1,4.93 1,4.93 1,4.92 1,4.93 1,4.93 1,4.93 1,4.92 1,4.93 1,5.71 1,5.72 1,5.71 1,5.71 1,5.72 1.01,5.71 1,5.71 1,5.72 1,5.71 1,5.72 1,5.67 1,5.66 1,5.67 1,5.67 1,5.67 1,5.67 1,5.67 1,5.67 1,5.67 1,5.67 1,3.95 1,3.96 1,3.95 1,3.96 1,3.95 1,3.96 1,3.95 1,3.96 1,3.96 1,3.95 1,2.41 1,2.42 1,2.41 1,2.42 1,2.41 1,2.41 1,2.42 1,2.41 1,2.41 1,2.42 1,1.55 1,1.56 1,1.55 1,1.56 1,1.56 1,1.55 1,1.56 1,1.55 1,1.56 1,1.55 1,0.68 1,0.67 1,0.68 1,0.67 1,0.67 1,0.68 1,0.67 1,0.68 1,0.67 1,0.67 1,0 1,0 1,0 1,0 1,0 1,0 1,0 1,0 1.01,0 1,0 1,0 1,0 1,0 1,0 1,0 1,0 1,0 1,0 1,0 1,0 1,0 1,0 1,0 1,0 1,0 1,0 1,0 1,0 1,0 1,0 1,0 1,0 1,0 1,0 1,0 1,0 1,0 1,0 1,0 1,0 1,0 1,0 1,0 1,0 1,0 1,0 1,0 1,0 1,0 1,0 1,-4.51 1,-4.51 1,-4.51 1,-4.5 1,-4.51 1,-4.51 1,-4.51 1,-4.51 1,-4.51 1,-4.51 1,-4.51 1,-4.51 1,-4.51 1,-4.51 1,-4.51 1,-4.51 1,-4.51 1,-4.51 1,-4.51 1,-4.51 1,-4.51 1.01,-4.51 1,-4.51 1,-4.51 1,-4.51 1,-4.51 1,-4.51 1,-4.51 1,-4.51 1,-4.51 1,-4.51 1,-4.51 1,-4.51 1,-4.51 1,-4.51 1,-4.51 1,-4.51 1,-4.51 1,-4.51 1,-4.51 1,-4.51 1,-4.51 1,-4.51 1,-4.51 1,-4.51 1,-4.51 1,-4.51 1,-4.51 1,-4.51 1,-4.51 1,-4.51 1,-4.51 1,-4.51 1,-4.51 1,-4.51 1,-4.51 1,-4.51 1,-4.51 1,-4.51 1,-4.51 1,-4.51 1,-4.51 1,-4.51 1,-4.51 1,-4.51 1,-4.51 1,-4.51 1,-4.51 1,-4.51 1,-4.51 1,-4.51 1,-4.51 1,-4.51 1,-4.51 1,-4.51 1,-4.51 1,-4.51 1,-4.51 1,-4.51 1,-4.51 1,-4.51 1,-4.51 1,-4.51 1,-4.51 1.01,-4.51 1,-4.51 1,-4.51 1,-4.51 1,-4.51 1,-4.51 1,-4.51 1,-4.51 1,-4.51 1,-4.51 1,-4.51 1,-4.51 1,-4.51 1,-4.51 1,-3.54 1,-0.71 1,0.07 1,0.07 1,0.07 1,0.07 1,0.07 1,0.2 1,0.19 1,0.19 1,0.2 1,0.19 1,-0.05 1,-0.05 1,-0.05 1,-0.04 1,-0.05 1,-0.05 1,-0.05 1,-0.05 1,-0.04 1,-0.05 1,-0.05 1,-0.05 1,-0.05 1,-0.04 1,-0.05 1,-0.06 1,-0.06 1,-0.06 1,-0.06 1,-0.05 1,-0.06 1,-0.06 1,-0.06 1,-0.06 1,-0.06 1,-0.06 1,-0.05 1,-0.06 1,-0.06 1,-0.06 1,-0.06 1,-0.06 1,-0.05 1,-0.06 1,-0.06 1,-0.06 1,-0.06 1.01,-0.06 1,-0.06 1,-0.05 1,-0.04 1,-0.03 1,-0.04 1,-0.03 1,-0.04 1,-0.04 1,-0.03 1,-0.04 1,-0.03 1,-0.04 1,-0.03 1,-0.04 1,-0.03 1,-0.04 1,-0.03 1,-0.04 1,-0.03 1,-0.04 1,-0.03 1,-0.04 1,-0.04 1,-0.03 1,-0.04 1,-0.03 1,-0.04 1,-0.03 1,-0.04 1,-0.03 1,-0.04 1,-0.03 1,-0.04 1,-0.03 1,-0.04 1,-0.03 1,-0.04 1,-0.03 1,-0.04 1,-0.04 1,-0.03 1,-0.04 1,-0.03 1,-0.04 1,-0.03 1,-0.04 1,-0.03 1,-0.04 1,-0.03 1,-0.04 1,-0.03 1,-0.04 1,-0.04 1,-0.04 1,-0.04 1,-0.05 1,-0.04 1,-0.04 1,-0.04 1,-0.04 1,-0.05 1,-0.04 1.01,-0.04 1,-0.04 1,-0.04 1,-0.05 1,-0.04 1,-0.04 1,-0.04 1,-0.04 1,-0.04 1,-0.05 1,-0.04 1,-0.04 1,-0.04 1,-0.04 1,-0.05 1,-0.04 1,-0.04 1,-0.04 1,-0.04 1,-0.05 1,-0.04 1,-0.04 1,-0.04 1,-0.04 1,-0.05 1,-0.04 1,-0.04 1,-0.04 1,-0.04 1,-0.04 1,-0.05 1,-0.04 1,-0.04 1,-0.04 1,-0.04 1,-0.05 1,-0.04 1,-0.04 1,-0.04 1,-0.04 1,-0.05 1,-0.05 1,-0.05 1,-0.05 1,-0.05 1,-0.05 1,-0.05 1,-0.04 1,-0.05 1,-0.05 1,-0.05 1,-0.05 1,-0.05 1,-0.05 1,-0.05 1,-0.04 1,-0.05 1,-0.05 1,-0.05 1,-0.05 1,-0.05 1,-0.05 1,-0.05 1.01,-0.05 1,-0.04 1,-0.05 1,-0.05 1,-0.05 1,-0.05 1,-0.05 1,-0.05 1,-0.05 1,-0.05 1,-0.04 1,-0.05 1,-0.05 1,-0.05 1,-0.05 1,-0.05 1,-0.05 1,-0.05 1,-0.04 1,-0.05 1,-0.05 1,-0.05 1,-0.05 1,-0.05 1,-0.05 1,-0.05 1,-0.05 1,-0.04 1,-0.04 1,-0.05 1,-0.04 1,-0.05 1,-0.04 1,-0.05 1,-0.04 1,-0.04 1,-0.05 1,-0.04 1,-0.05 1,-0.04 1,-0.05 1,-0.04 1,-0.04 1,-0.05 1,-0.04 1,-0.05 1,-0.04 1,-0.05 1,-0.04 1,-0.04 1,-0.05 1,-0.04 1,-0.05 1,-0.04 1,-0.05 1,-0.04 1,-0.04 1,-0.05 1,-0.04 1,-0.05 1,-0.04 1,-0.05 1,-0.04 1.01,-0.04 1,-0.05 1,-0.04 1,-0.05 1,-0.04 1,-0.05 1,-0.04 1,-0.04 1,-0.05 1,-0.04 1,-0.05 1,-0.04 1,-0.05 1,-0.04"
           style="fill:none;stroke:#e41a1c;stroke-width:4.25;stroke-linecap:butt;stroke-linejoin:round;stroke-miterlimit:1;stroke-dasharray:none;stroke-opacity:1"
           id="path70"
           inkscape:connector-curvature="0" /><path
           d="m 49.87,37.26 1,0.09 1,0.09 1,0.09 1,0.09 1,0.09 1,0.09 1,0.09 1,0.09 1,0.09 1,0.08 1,0.09 1,0.09 1,0.09 1,0.09 1,0.09 1,0.09 1,0.09 1,0.09 1,0.09 1,0.09 1,0.09 1,0.09 1,0.09 1,0.08 1,0.09 1,0.09 1,0.09 1.01,0.09 1,0.09 1,0.09 1,0.09 1,0.09 1,0.09 1,0.09 1,0.09 1,0.09 1,0.08 1,0.09 1,0.09 1,0.09 1,0.09 1,0.09 1,0.09 1,0.09 1,0.09 1,0.09 1,0.09 1,0.09 1,0.09 1,0.08 1,0.09 1,0.09 1,0.09 1,0.09 1,0.09 1,0.09 1,0.09 1,0.09 1,0.09 1,0.09 1,0.09 1,0.09 1,0.08 1,0.09 1,0.09 1,0.09 1,0.09 1,0.09 1,0.09 1,0.09 1,0.09 1,0.09 1,0.09 1,0.09 1,0.09 1,0.08 1,0.09 1,0.09 1,0.09 1,0.09 1,0.09 1,0.09 1,0.09 1,0.09 1,0.09 1,-0.12 1,0.87 1,-0.02 1,-0.03 1,-0.03 1.01,0.08 1,0.09 1,0.09 1,0.08 1,0.08 1,0.15 1,-0.91 1,0 1,0.01 1,0.01 1,0 1,-0.02 1,-0.03 1,-0.02 1,-0.02 1,0.3 1,1.33 1,0.17 1,0.1 1,0.11 1,0.11 1,0.11 1,0.1 1,0.11 1,0.1 1,0.46 1,-0.74 1,0.06 1,0.07 1,0.05 1,0.03 1,-0.02 1,-0.02 1,-0.03 1,-0.02 1,-0.03 1,0.22 1,0.02 1,0.27 1,0.06 1,0.04 1,0.05 1,0.02 1,0.02 1,0.02 1,0.83 1,0 1,0.4 1,0.36 1,0.36 1,0.45 1,0.12 1,0.13 1,0.1 1,0.07 1,-0.72 1,-0.52 1,-0.41 1,-0.14 1,-0.15 1,0.04 1,0.05 1,0.05 1.01,0.09 1,0.03 1,0.6 1,-0.15 1,0.08 1,0.06 1,0.02 1,0.06 1,0.6 1,0.04 1,0.41 1,1.2 1,0.12 1,-1.52 1,-0.06 1,-0.2 1,-0.03 1,0.11 1,-0.36 1,0.03 1,-0.04 1,-0.21 1,-0.27 1,0.31 1,-0.09 1,0.08 1,0.01 1,1.22 1,0.47 1,0.08 1,0.12 1,0.17 1,3.28 1,0.35 1,-0.08 1,0.79 1,0.65 1,0.9 1,0.45 1,0.8 1,-1.94 1,-0.19 1,0.87 1,-0.14 1,0.14 1,0.12 1,0.22 1,0.49 1,0.06 1,-1.04 1,0.05 1,-0.69 1,-2.11 1,-0.39 1,-0.24 1,0.1 1,-0.12 1,0.98 1,0.06 1,-0.06 1,-0.43 1,-0.66 1,0.33 1.01,2.43 1,0.59 1,0.58 1,0.25 1,0.2 1,0.11 1,0.38 1,0.12 1,-0.07 1,1.03 1,-1.3 1,-0.09 1,-0.14 1,-0.24 1,-0.4 1,-0.55 1,-0.06 1,-0.54 1,-0.56 1,-0.28 1,1.66 1,-0.1 1,0.29 1,-0.79 1,-0.51 1,-0.51 1,-0.5 1,-0.51 1,-0.51 1,-0.23 1,-0.23 1,-0.23 1,-0.23 1,-0.23 1,-0.23 1,-0.23 1,-0.23 1,-0.22 1,-0.23 1,-0.32 1,-0.32 1,-0.32 1,-0.32 1,-0.32 1,-0.32 1,-0.32 1,-0.33 1,-0.32 1,-0.32 1,-0.11 1,-0.12 1,-0.12 1,-0.11 1,-0.12 1,-0.12 1,-0.11 1,-0.12 1,-0.12 1,-0.12 1,-0.11 1,-0.12 1,-0.11 1,-0.12 1,-0.11 1.01,-0.12 1,-0.11 1,-0.12 1,-0.11 1,-0.12 1,-0.12 1,-0.13 1,-0.12 1,-0.13 1,-0.13 1,-0.12 1,-0.13 1,-0.12 1,-0.13 1,-0.12 1,-0.15 1,-0.15 1,-0.15 1,-0.15 1,-0.15 1,-0.15 1,-0.14 1,-0.15 1,-0.15 1,-0.15 1,-0.17 1,-0.17 1,-0.18 1,-0.17 1,-0.17 1,-0.17 1,-0.18 1,-0.17 1,-0.17 1,-0.17 1,-0.19 1,-0.2 1,-0.19 1,-0.19 1,-0.19 1,-0.2 1,-0.19 1,-0.19 1,-0.19 1,-0.19 1,-0.2 1,-0.2 1,-0.19 1,-0.2 1,-0.19 1,-0.2 1,-0.19 1,-0.2 1,-0.19 1,-0.2 1,-0.05 1,-0.05 1,-0.05 1,-0.06 1,-0.05 1,-0.05 1,-0.05 1,-0.05 1.01,-0.05 1,-0.06 1,-0.05 1,-0.05 1,-0.05 1,-0.05 1,-0.05 1,-0.05 1,-0.06 1,-0.05 1,-0.05 1,-0.05 1,-0.05 1,-0.05 1,-0.05 1,-0.06 1,-0.05 1,0 1,0 1,0 1,0 1,0 1,0 1,0 1,0 1,0 1,0 1,0 1,0 1,0 1,0 1,0 1,0 1,0 1,0 1,0 1,0 1,0 1,0 1,0 1,0 1,0 1,0 1,0 1,0 1,0 1,0 1,0 1,0 1,0 1,0 1,0 1,0 1,0 1,0 1,0 1,0 1,0 1,0 1,0 1,0 1,0 1,0 1.01,0 1,0 1,0 1,0 1,0 1,0 1,0 1,0 1,0 1,0 1,0 1,0 1,0 1,0 1,0 1,0 1,0 1,0 1,0 1,0 1,0 1,0 1,0 1,0 1,0 1,0 1,0 1,0 1,0 1,0 1,0 1,0 1,0 1,0 1,0 1,0 1,0 1,0 1,0 1,0 1,0 1,0 1,0 1,0 1,0 1,0 1,0 1,0 1,0 1,0 1,0 1,0 1,0 1,0 1,0 1,0 1,0 1,0 1,0 1,0 1,0 1,0 1,0 1.01,0 1,0 1,0 1,0 1,0 1,0 1,0 1,0 1,0 1,0 1,0 1,0 1,0 1,0 1,0 1,0 1,0 1,0 1,0 1,0 1,0 1,0 1,0 1,0 1,0 1,0 1,0 1,0 1,0 1,0 1,0 1,0 1,0 1,0 1,0 1,0 1,0 1,0 1,0 1,0 1,0 1,0 1,0 1,0 1,0 1,0 1,0 1,0 1,0 1,0 1,0 1,0 1,0 1,0 1,0 1,0 1,0 1,0 1,0 1,0 1,0 1,0 1,0 1.01,0 1,0 1,0 1,0 1,0 1,0 1,0 1,0 1,0 1,0 1,0 1,0 1,0 1,0 1,0 1,0 1,0 1,0 1,0 1,0 1,0 1,0 1,0 1,0 1,0 1,0 1,0 1,0 1,0 1,0 1,0 1,0 1,0 1,0 1,0 1,0 1,0 1,0 1,0 1,0 1,0 1,0 1,0 1,0 1,0 1,0 1,0 1,0 1,0 1,0 1,0 1,0 1,0 1,0 1,0 1,0 1,0 1,0 1,0 1,0 1,0 1,0 1,0 1.01,0 1,0 1,0 1,0 1,0 1,0 1,0 1,0 1,0 1,0 1,0 1,0 1,0 1,0 1,0 1,0 1,0 1,0 1,0 1,0 1,0 1,0 1,0 1,0 1,0 1,0 1,0 1,0 1,0 1,0 1,0 1,0 1,0 1,0 1,0 1,0 1,0 1,0 1,0 1,0 1,0 1,0 1,0 1,0 1,0 1,0 1,0 1,0 1,0 1,0 1,0 1,0 1,0 1,0 1,0 1,0 1,0 1,0 1,0 1,0 1,0 1,0 1,0 1.01,0 1,0 1,0 1,0 1,0 1,0 1,0 1,0 1,0 1,0 1,0 1,0 1,0 1,0 1,0 1,0 1,0 1,0 1,0 1,0 1,0 1,0 1,0 1,0 1,0 1,0 1,0 1,0 1,0 1,0 1,0 1,0 1,0 1,0 1,0 1,0 1,0 1,0 1,0 1,0 1,0 1,0 1,0 1,0 1,0 1,0 1,0 1,0 1,0 1,0 1,0 1,0 1,0 1,0 1,0 1,0 1,0 1,0 1,0 1,0 1,0 1,0 1,0 1.01,0 1,0 1,0 1,0 1,0 1,0 1,0 1,0 1,0 1,0 1,0 1,0 1,0 1,0"
           style="fill:none;stroke:#377eb8;stroke-width:4.25;stroke-linecap:butt;stroke-linejoin:round;stroke-miterlimit:1;stroke-dasharray:none;stroke-opacity:1"
           id="path72"
           inkscape:connector-curvature="0" /><path
           d="m 49.87,37.26 735.12,0 0,501.48 -735.12,0 0,-501.48 z"
           style="fill:none;stroke:#7f7f7f;stroke-width:1.05999994;stroke-linecap:round;stroke-linejoin:round;stroke-miterlimit:10;stroke-dasharray:none;stroke-opacity:1"
           id="path74"
           inkscape:connector-curvature="0" /></g></g><g
       id="g76" /><g
       id="g78" /><g
       id="g80"><text
         transform="matrix(1,0,0,-1,7.2,192.94)"
         style="font-variant:normal;font-weight:normal;font-size:32px;font-family:Helvetica;-inkscape-font-specification:Helvetica;writing-mode:lr-tb;fill:#000000;fill-opacity:1;fill-rule:nonzero;stroke:none"
         id="text82"><tspan
           x="0 17.792"
           y="0"
           sodipodi:role="line"
           id="tspan84">10</tspan></text>
<text
         transform="matrix(1,0,0,-1,7.2,360.1)"
         style="font-variant:normal;font-weight:normal;font-size:32px;font-family:Helvetica;-inkscape-font-specification:Helvetica;writing-mode:lr-tb;fill:#000000;fill-opacity:1;fill-rule:nonzero;stroke:none"
         id="text86"><tspan
           x="0 17.792"
           y="0"
           sodipodi:role="line"
           id="tspan88">20</tspan></text>
<text
         transform="matrix(1,0,0,-1,7.2,527.26)"
         style="font-variant:normal;font-weight:normal;font-size:32px;font-family:Helvetica;-inkscape-font-specification:Helvetica;writing-mode:lr-tb;fill:#000000;fill-opacity:1;fill-rule:nonzero;stroke:none"
         id="text90"><tspan
           x="0 17.792"
           y="0"
           sodipodi:role="line"
           id="tspan92">30</tspan></text>
</g><g
       id="g94" /><g
       id="g96"><path
         d="m 45.62,37.26 4.25,0"
         style="fill:none;stroke:#000000;stroke-width:1.05999994;stroke-linecap:butt;stroke-linejoin:round;stroke-miterlimit:10;stroke-dasharray:none;stroke-opacity:1"
         id="path98"
         inkscape:connector-curvature="0" /><path
         d="m 45.62,204.42 4.25,0"
         style="fill:none;stroke:#000000;stroke-width:1.05999994;stroke-linecap:butt;stroke-linejoin:round;stroke-miterlimit:10;stroke-dasharray:none;stroke-opacity:1"
         id="path100"
         inkscape:connector-curvature="0" /><path
         d="m 45.62,371.59 4.25,0"
         style="fill:none;stroke:#000000;stroke-width:1.05999994;stroke-linecap:butt;stroke-linejoin:round;stroke-miterlimit:10;stroke-dasharray:none;stroke-opacity:1"
         id="path102"
         inkscape:connector-curvature="0" /><path
         d="m 45.62,538.75 4.25,0"
         style="fill:none;stroke:#000000;stroke-width:1.05999994;stroke-linecap:butt;stroke-linejoin:round;stroke-miterlimit:10;stroke-dasharray:none;stroke-opacity:1"
         id="path104"
         inkscape:connector-curvature="0" /></g><g
       id="g106" /><g
       id="g108" /><g
       id="g110" /><g
       id="g112" /><g
       id="g114" /><g
       id="g116"><path
         d="m 49.87,33.01 0,4.25"
         style="fill:none;stroke:#000000;stroke-width:1.05999994;stroke-linecap:butt;stroke-linejoin:round;stroke-miterlimit:10;stroke-dasharray:none;stroke-opacity:1"
         id="path118"
         inkscape:connector-curvature="0" /><path
         d="m 284.91,33.01 0,4.25"
         style="fill:none;stroke:#000000;stroke-width:1.05999994;stroke-linecap:butt;stroke-linejoin:round;stroke-miterlimit:10;stroke-dasharray:none;stroke-opacity:1"
         id="path120"
         inkscape:connector-curvature="0" /><path
         d="m 534.95,33.01 0,4.25"
         style="fill:none;stroke:#000000;stroke-width:1.05999994;stroke-linecap:butt;stroke-linejoin:round;stroke-miterlimit:10;stroke-dasharray:none;stroke-opacity:1"
         id="path122"
         inkscape:connector-curvature="0" /><path
         d="m 784.99,33.01 0,4.25"
         style="fill:none;stroke:#000000;stroke-width:1.05999994;stroke-linecap:butt;stroke-linejoin:round;stroke-miterlimit:10;stroke-dasharray:none;stroke-opacity:1"
         id="path124"
         inkscape:connector-curvature="0" /></g><g
       id="g126" /><g
       id="g128"><text
         transform="matrix(1,0,0,-1,14.29,7.2)"
         style="font-variant:normal;font-weight:normal;font-size:32px;font-family:Helvetica;-inkscape-font-specification:Helvetica;writing-mode:lr-tb;fill:#000000;fill-opacity:1;fill-rule:nonzero;stroke:none"
         id="text130"><tspan
           x="0 17.792 35.584 53.375999"
           y="0"
           sodipodi:role="line"
           id="tspan132">1765</tspan></text>
<text
         transform="matrix(1,0,0,-1,249.32,7.2)"
         style="font-variant:normal;font-weight:normal;font-size:32px;font-family:Helvetica;-inkscape-font-specification:Helvetica;writing-mode:lr-tb;fill:#000000;fill-opacity:1;fill-rule:nonzero;stroke:none"
         id="text134"><tspan
           x="0 17.792 35.584 53.375999"
           y="0"
           sodipodi:role="line"
           id="tspan136">2000</tspan></text>
<text
         transform="matrix(1,0,0,-1,499.36,7.2)"
         style="font-variant:normal;font-weight:normal;font-size:32px;font-family:Helvetica;-inkscape-font-specification:Helvetica;writing-mode:lr-tb;fill:#000000;fill-opacity:1;fill-rule:nonzero;stroke:none"
         id="text138"><tspan
           x="0 17.792 35.584 53.375999"
           y="0"
           sodipodi:role="line"
           id="tspan140">2250</tspan></text>
<text
         transform="matrix(1,0,0,-1,749.4,7.2)"
         style="font-variant:normal;font-weight:normal;font-size:32px;font-family:Helvetica;-inkscape-font-specification:Helvetica;writing-mode:lr-tb;fill:#000000;fill-opacity:1;fill-rule:nonzero;stroke:none"
         id="text142"><tspan
           x="0 17.792 35.584 53.375999"
           y="0"
           sodipodi:role="line"
           id="tspan144">2500</tspan></text>
</g><g
       id="g146" /><g
       id="g148" /><g
       id="g150" /><g
       id="g152" /><g
       id="g154" /><g
       id="g156" /><g
       id="g158" /><g
       id="g160" /><g
       id="g162" /><g
       id="g164" /><g
       id="g166" /><g
       id="g168" /><g
       id="g170" /><g
       id="g172" /><g
       id="g174" /><g
       id="g176" /><g
       id="g178" /><g
       id="g180" /><g
       id="g182"><path
         d="m 485.19,504.44 23.04,0"
         style="fill:none;stroke:#e41a1c;stroke-width:4.25;stroke-linecap:butt;stroke-linejoin:round;stroke-miterlimit:10;stroke-dasharray:none;stroke-opacity:1"
         id="path184"
         inkscape:connector-curvature="0" /></g><g
       id="g186" /><g
       id="g188" /><g
       id="g190" /><g
       id="g192"><path
         d="m 485.19,468.44 23.04,0"
         style="fill:none;stroke:#377eb8;stroke-width:4.25;stroke-linecap:butt;stroke-linejoin:round;stroke-miterlimit:10;stroke-dasharray:none;stroke-opacity:1"
         id="path194"
         inkscape:connector-curvature="0" /></g><g
       id="g196" /><g
       id="g198"><text
         transform="matrix(1,0,0,-1,513.27,496.1)"
         style="font-variant:normal;font-weight:normal;font-size:32px;font-family:Helvetica;-inkscape-font-specification:Helvetica;writing-mode:lr-tb;fill:#000000;fill-opacity:1;fill-rule:nonzero;stroke:none"
         id="text200"><tspan
           x="0 7.9359999 25.728001 41.728001 57.728001 64.832001 71.935997 80.832001 89.727997 107.52 125.312 132.416 141.312 148.416 166.20799 184 201.79201"
           y="0"
           sodipodi:role="line"
           id="tspan202">fossil fuel input</tspan></text>
</g><g
       id="g204" /><g
       id="g206"><text
         transform="matrix(1,0,0,-1,513.27,460.47)"
         style="font-variant:normal;font-weight:normal;font-size:32px;font-family:Helvetica;-inkscape-font-specification:Helvetica;writing-mode:lr-tb;fill:#000000;fill-opacity:1;fill-rule:nonzero;stroke:none"
         id="text208"><tspan
           x="0 7.1040001 24.896 42.688 60.48 69.375999 87.167999 103.168 120.96 129.856 145.856 163.64799 181.44 199.23199 217.024"
           y="0"
           sodipodi:role="line"
           id="tspan210">land use change</tspan></text>
</g><g
       id="g212" /><g
       id="g214" /><g
       id="g216" /><g
       id="g218" /><g
       id="g220" /><g
       id="g222" /><g
       id="g224" /><g
       id="g226" /><g
       id="g228" /><g
       id="g230" /><g
       id="g232" /><g
       id="g234" /><flowRoot
       transform="matrix(0,0.73667692,0.8,0,-806.10952,-1933.0851)"
       style="font-style:normal;font-variant:normal;font-weight:normal;font-stretch:normal;font-size:32px;line-height:125%;font-family:Georgia;-inkscape-font-specification:Georgia;letter-spacing:0px;word-spacing:0px;fill:#000000;fill-opacity:1;stroke:none"
       id="flowRoot123800-9"
       xml:space="preserve"><flowRegion
         id="flowRegion123802-2"><rect
           style="font-size:32px"
           y="973.74072"
           x="2934.4131"
           height="80.615746"
           width="366.22583"
           id="rect123804-0" /></flowRegion><flowPara
         id="flowPara123806-2">Flux (PgC/yr)</flowPara></flowRoot></g></svg>