<?xml version="1.0" encoding="UTF-8" standalone="no"?>
<!-- Created with Inkscape (http://www.inkscape.org/) -->

<svg
   xmlns:dc="http://purl.org/dc/elements/1.1/"
   xmlns:cc="http://creativecommons.org/ns#"
   xmlns:rdf="http://www.w3.org/1999/02/22-rdf-syntax-ns#"
   xmlns:svg="http://www.w3.org/2000/svg"
   xmlns="http://www.w3.org/2000/svg"
   xmlns:sodipodi="http://sodipodi.sourceforge.net/DTD/sodipodi-0.dtd"
   xmlns:inkscape="http://www.inkscape.org/namespaces/inkscape"
   id="svg2"
   version="1.1"
   inkscape:version="0.91 r13725"
   xml:space="preserve"
   width="1051.25"
   height="743.75"
   viewBox="0 0 1051.25 743.75"
   sodipodi:docname="means.svg"><metadata
     id="metadata8"><rdf:RDF><cc:Work
         rdf:about=""><dc:format>image/svg+xml</dc:format><dc:type
           rdf:resource="http://purl.org/dc/dcmitype/StillImage" /><dc:title /></cc:Work></rdf:RDF></metadata><defs
     id="defs6"><clipPath
       clipPathUnits="userSpaceOnUse"
       id="clipPath30"><path
         d="m 67.66,65.61 717.32,0 0,501.48 -717.32,0 0,-501.48 z"
         id="path32"
         inkscape:connector-curvature="0" /></clipPath></defs><sodipodi:namedview
     pagecolor="#ffffff"
     bordercolor="#666666"
     borderopacity="1"
     objecttolerance="10"
     gridtolerance="10"
     guidetolerance="10"
     inkscape:pageopacity="0"
     inkscape:pageshadow="2"
     inkscape:window-width="1920"
     inkscape:window-height="1023"
     id="namedview4"
     showgrid="false"
     inkscape:zoom="0.29203329"
     inkscape:cx="-34.242678"
     inkscape:cy="371.875"
     inkscape:window-x="1920"
     inkscape:window-y="0"
     inkscape:window-maximized="1"
     inkscape:current-layer="g10" /><g
     id="g10"
     inkscape:groupmode="layer"
     inkscape:label="means"
     transform="matrix(1.25,0,0,-1.25,0,743.75)"><g
       id="g12" /><g
       id="g14" /><g
       id="g16"><path
         d="m 0,0 841.68,0 0,595.44 L 0,595.44 0,0 Z"
         style="fill:#ffffff;fill-opacity:1;fill-rule:nonzero;stroke:#ffffff;stroke-width:1.05999994;stroke-linecap:round;stroke-linejoin:round;stroke-miterlimit:10;stroke-dasharray:none;stroke-opacity:1"
         id="path18"
         inkscape:connector-curvature="0" /></g><g
       id="g20" /><g
       id="g22" /><g
       id="g24" /><g
       id="g26"><g
         id="g28"
         clip-path="url(#clipPath30)"><path
           d="m 67.66,65.61 717.32,0 0,501.48 -717.32,0 0,-501.48 z"
           style="fill:#ffffff;fill-opacity:1;fill-rule:nonzero;stroke:none"
           id="path34"
           inkscape:connector-curvature="0" /><path
           d="m 67.66,149.19 717.33,0"
           style="fill:none;stroke:#fafafa;stroke-width:1.05999994;stroke-linecap:butt;stroke-linejoin:round;stroke-miterlimit:10;stroke-dasharray:none;stroke-opacity:1"
           id="path36"
           inkscape:connector-curvature="0" /><path
           d="m 67.66,316.35 717.33,0"
           style="fill:none;stroke:#fafafa;stroke-width:1.05999994;stroke-linecap:butt;stroke-linejoin:round;stroke-miterlimit:10;stroke-dasharray:none;stroke-opacity:1"
           id="path38"
           inkscape:connector-curvature="0" /><path
           d="m 67.66,483.51 717.33,0"
           style="fill:none;stroke:#fafafa;stroke-width:1.05999994;stroke-linecap:butt;stroke-linejoin:round;stroke-miterlimit:10;stroke-dasharray:none;stroke-opacity:1"
           id="path40"
           inkscape:connector-curvature="0" /><path
           d="m 182.34,65.61 0,501.48"
           style="fill:none;stroke:#fafafa;stroke-width:1.05999994;stroke-linecap:butt;stroke-linejoin:round;stroke-miterlimit:10;stroke-dasharray:none;stroke-opacity:1"
           id="path42"
           inkscape:connector-curvature="0" /><path
           d="m 419.01,65.61 0,501.48"
           style="fill:none;stroke:#fafafa;stroke-width:1.05999994;stroke-linecap:butt;stroke-linejoin:round;stroke-miterlimit:10;stroke-dasharray:none;stroke-opacity:1"
           id="path44"
           inkscape:connector-curvature="0" /><path
           d="m 662.99,65.61 0,501.48"
           style="fill:none;stroke:#fafafa;stroke-width:1.05999994;stroke-linecap:butt;stroke-linejoin:round;stroke-miterlimit:10;stroke-dasharray:none;stroke-opacity:1"
           id="path46"
           inkscape:connector-curvature="0" /><path
           d="m 67.66,65.61 717.33,0"
           style="fill:none;stroke:#e5e5e5;stroke-width:0.43000001;stroke-linecap:butt;stroke-linejoin:round;stroke-miterlimit:10;stroke-dasharray:none;stroke-opacity:1"
           id="path48"
           inkscape:connector-curvature="0" /><path
           d="m 67.66,232.77 717.33,0"
           style="fill:none;stroke:#e5e5e5;stroke-width:0.43000001;stroke-linecap:butt;stroke-linejoin:round;stroke-miterlimit:10;stroke-dasharray:none;stroke-opacity:1"
           id="path50"
           inkscape:connector-curvature="0" /><path
           d="m 67.66,399.93 717.33,0"
           style="fill:none;stroke:#e5e5e5;stroke-width:0.43000001;stroke-linecap:butt;stroke-linejoin:round;stroke-miterlimit:10;stroke-dasharray:none;stroke-opacity:1"
           id="path52"
           inkscape:connector-curvature="0" /><path
           d="m 67.66,567.09 717.33,0"
           style="fill:none;stroke:#e5e5e5;stroke-width:0.43000001;stroke-linecap:butt;stroke-linejoin:round;stroke-miterlimit:10;stroke-dasharray:none;stroke-opacity:1"
           id="path54"
           inkscape:connector-curvature="0" /><path
           d="m 67.66,65.61 0,501.48"
           style="fill:none;stroke:#e5e5e5;stroke-width:0.43000001;stroke-linecap:butt;stroke-linejoin:round;stroke-miterlimit:10;stroke-dasharray:none;stroke-opacity:1"
           id="path56"
           inkscape:connector-curvature="0" /><path
           d="m 297.01,65.61 0,501.48"
           style="fill:none;stroke:#e5e5e5;stroke-width:0.43000001;stroke-linecap:butt;stroke-linejoin:round;stroke-miterlimit:10;stroke-dasharray:none;stroke-opacity:1"
           id="path58"
           inkscape:connector-curvature="0" /><path
           d="m 541,65.61 0,501.48"
           style="fill:none;stroke:#e5e5e5;stroke-width:0.43000001;stroke-linecap:butt;stroke-linejoin:round;stroke-miterlimit:10;stroke-dasharray:none;stroke-opacity:1"
           id="path60"
           inkscape:connector-curvature="0" /><path
           d="m 784.99,65.61 0,501.48"
           style="fill:none;stroke:#e5e5e5;stroke-width:0.43000001;stroke-linecap:butt;stroke-linejoin:round;stroke-miterlimit:10;stroke-dasharray:none;stroke-opacity:1"
           id="path62"
           inkscape:connector-curvature="0" /><path
           d="m 67.66,451.71 0.98,0 0.97,0 0.98,0 0.98,0 0.97,0 0.98,0 0.97,0 0.98,0 0.98,0 0.97,-0.01 0.98,0 0.97,0 0.98,0 0.98,0 0.97,0 0.98,0 0.97,0 0.98,0 0.98,0 0.97,0 0.98,0 0.97,-0.01 0.98,0 0.98,0 0.97,0 0.98,0 0.97,0 0.98,0 0.98,-0.01 0.97,0 0.98,0 0.97,0 0.98,0 0.97,-0.01 0.98,0 0.98,0 0.97,-0.01 0.98,0 0.97,0 0.98,0 0.98,-0.01 0.97,0 0.98,-0.01 0.97,0 0.98,0 0.98,-0.01 0.97,0 0.98,0 0.97,-0.01 0.98,0 0.98,-0.01 0.97,0 0.98,-0.01 0.97,0 0.98,-0.01 0.98,0 0.97,-0.01 0.98,-0.01 0.97,0 0.98,-0.01 0.98,0 0.97,-0.01 0.98,-0.01 0.97,0 0.98,-0.01 0.98,-0.01 0.97,-0.01 0.98,0 0.97,-0.01 0.98,-0.01 0.98,-0.01 0.97,-0.01 0.98,-0.01 0.97,0 0.98,-0.01 0.97,-0.01 0.98,-0.01 0.98,-0.01 0.97,-0.01 0.98,-0.01 0.97,-0.02 0.98,-0.01 0.98,-0.01 0.97,-0.01 0.98,-0.01 0.97,-0.02 0.98,-0.01 0.98,-0.01 0.97,-0.02 0.98,-0.01 0.97,-0.02 0.98,-0.01 0.98,-0.02 0.97,-0.01 0.98,-0.02 0.97,-0.02 0.98,-0.02 0.98,-0.02 0.97,-0.01 0.98,-0.03 0.97,-0.02 0.98,-0.02 0.98,-0.02 0.97,-0.02 0.98,-0.03 0.97,-0.02 0.98,-0.02 0.98,-0.03 0.97,-0.03 0.98,-0.03 0.97,-0.02 0.98,-0.03 0.98,-0.03 0.97,-0.03 0.98,-0.03 0.97,-0.03 0.98,-0.04 0.97,-0.03 0.98,-0.04 0.98,-0.03 0.97,-0.04 0.98,-0.04 0.97,-0.04 0.98,-0.04 0.98,-0.04 0.97,-0.05 0.98,-0.04 0.97,-0.05 0.98,-0.04 0.98,-0.05 0.97,-0.05 0.98,-0.05 0.97,-0.05 0.98,-0.06 0.98,-0.06 0.97,-0.06 0.98,-0.06 0.97,-0.07 0.98,-0.07 0.98,-0.07 0.97,-0.07 0.98,-0.09 0.97,-0.08 0.98,-0.08 0.98,-0.09 0.97,-0.09 0.98,-0.09 0.97,-0.09 0.98,-0.09 0.98,-0.09 0.97,-0.09 0.98,-0.09 0.97,-0.1 0.98,-0.08 0.98,-0.09 0.97,-0.08 0.98,-0.08 0.97,-0.08 0.98,-0.1 0.97,-0.09 0.98,-0.09 0.98,-0.09 0.97,-0.1 0.98,-0.11 0.97,-0.1 0.98,-0.09 0.98,-0.08 0.97,-0.07 0.98,-0.08 0.97,-0.09 0.98,-0.09 0.98,-0.11 0.97,-0.1 0.98,-0.1 0.97,-0.11 0.98,-0.12 0.98,-0.12 0.97,-0.12 0.98,-0.12 0.97,-0.11 0.98,-0.1 0.98,-0.11 0.97,-0.12 0.98,-0.12 0.97,-0.13 0.98,-0.15 0.98,-0.16 0.97,-0.16 0.98,-0.16 0.97,-0.17 0.98,-0.19 0.98,-0.2 0.97,-0.2 0.98,-0.21 0.97,-0.23 0.98,-0.23 0.98,-0.23 0.97,-0.25 0.98,-0.26 0.97,-0.27 0.98,-0.29 0.97,-0.3 0.98,-0.31 0.98,-0.32 0.97,-0.36 0.98,-0.37 0.97,-0.38 0.98,-0.4 0.98,-0.41 0.97,-0.4 0.98,-0.41 0.97,-0.43 0.98,-0.43 0.98,-0.44 0.97,-0.45 0.98,-0.44 0.97,-0.41 0.98,-0.41 0.98,-0.41 0.97,-0.42 0.98,-0.43 0.97,-0.44 0.98,-0.46 0.98,-0.47 0.97,-0.47 0.98,-0.47 0.97,-0.47 0.98,-0.45 0.98,-0.45 0.97,-0.46 0.98,-0.47 0.97,-0.47 0.98,-0.47 0.98,-0.47 0.97,-0.46 0.98,-0.47 0.97,-0.48 0.98,-0.5 0.98,-0.52 0.97,-0.55 0.98,-0.57 0.97,-0.59 0.98,-0.59 0.97,-0.6 0.98,-0.62 0.98,-0.62 0.97,-0.65 0.98,-0.66 0.97,-0.68 0.98,-0.69 0.98,-0.71 0.97,-0.72 0.98,-0.74 0.97,-0.75 0.98,-0.76 0.98,-0.78 0.97,-0.78 0.98,-0.8 0.97,-0.8 0.98,-0.81 0.98,-0.82 0.97,-0.82 0.98,-0.84 0.97,-0.84 0.98,-0.85 0.98,-0.85 0.97,-0.88 0.98,-0.88 0.97,-0.89 0.98,-0.91 0.98,-0.91 0.97,-0.93 0.98,-0.93 0.97,-0.95 0.98,-0.95 0.98,-0.97 0.97,-0.98 0.98,-0.99 0.97,-1 0.98,-1.01 0.98,-1.02 0.97,-1.03 0.98,-1.04 0.97,-1.06 0.98,-1.05 0.97,-1.07 0.98,-1.08 0.98,-1.08 0.97,-1.08 0.98,-1.1 0.97,-1.1 0.98,-1.1 0.98,-1.11 0.97,-1.11 0.98,-1.12 0.97,-1.11 0.98,-1.11 0.98,-1.11 0.97,-1.1 0.98,-1.09 0.97,-1.09 0.98,-1.08 0.98,-1.08 0.97,-1.07 0.98,-1.06 0.97,-1.06 0.98,-1.04 0.98,-1.03 0.97,-1.01 0.98,-1 0.97,-0.99 0.98,-0.98 0.98,-0.97 0.97,-0.95 0.98,-0.94 0.97,-0.93 0.98,-0.91 0.98,-0.9 0.97,-0.88 0.98,-0.86 0.97,-0.86 0.98,-0.83 0.98,-0.83 0.97,-0.81 0.98,-0.79 0.97,-0.78 0.98,-0.77 0.97,-0.75 0.98,-0.73 0.98,-0.71 0.97,-0.7 0.98,-0.68 0.97,-0.67 0.98,-0.65 0.98,-0.64 0.97,-0.62 0.98,-0.61 0.97,-0.59 0.98,-0.57 0.98,-0.56 0.97,-0.54 0.98,-0.52 0.97,-0.51 0.98,-0.5 0.98,-0.48 0.97,-0.46 0.98,-0.45 0.97,-0.44 0.98,-0.43 0.98,-0.41 0.97,-0.39 0.98,-0.39 0.97,-0.37 0.98,-0.36 0.98,-0.34 0.97,-0.34 0.98,-0.32 0.97,-0.31 0.98,-0.3 0.98,-0.29 0.97,-0.27 0.98,-0.27 0.97,-0.25 0.98,-0.24 0.97,-0.24 0.98,-0.22 0.98,-0.21 0.97,-0.2 0.98,-0.19 0.97,-0.18 0.98,-0.17 0.98,-0.17 0.97,-0.15 0.98,-0.14 0.97,-0.14 0.98,-0.12 0.98,-0.12 0.97,-0.1 0.98,-0.1 0.97,-0.09 0.98,-0.08 0.98,-0.08 0.97,-0.06 0.98,-0.06 0.97,-0.05 0.98,-0.03 0.98,-0.01 0.97,0.01 0.98,0.03 0.97,0.06 0.98,0.07 0.98,0.1 0.97,0.11 0.98,0.13 0.97,0.16 0.98,0.17 0.98,0.19 0.97,0.21 0.98,0.22 0.97,0.25 0.98,0.26 0.98,0.27 0.97,0.3 0.98,0.31 0.97,0.32 0.98,0.35 0.97,0.35 0.98,0.38 0.98,0.38 0.97,0.4 0.98,0.42 0.97,0.43 0.98,0.45 0.98,0.46 0.97,0.47 0.98,0.48 0.97,0.5 0.98,0.51 0.98,0.53 0.97,0.54 0.98,0.55 0.97,0.56 0.98,0.57 0.98,0.59 0.97,0.6 0.98,0.61 0.97,0.62 0.98,0.64 0.98,0.64 0.97,0.66 0.98,0.67 0.97,0.68 0.98,0.68 0.98,0.7 0.97,0.72 0.98,0.72 0.97,0.73 0.98,0.74 0.98,0.75 0.97,0.77 0.98,0.77 0.97,0.78 0.98,0.79 0.98,0.81 0.97,0.81 0.98,0.82 0.97,0.83 0.98,0.84 0.97,0.85 0.98,0.86 0.98,0.87 0.97,0.87 0.98,0.89 0.97,0.9 0.98,0.9 0.98,0.91 0.97,0.92 0.98,0.94 0.97,0.94 0.98,0.94 0.98,0.96 0.97,0.97 0.98,0.97 0.97,0.98 0.98,0.99 0.98,1 0.97,1.01 0.98,1.02 0.97,1.02 0.98,1.03 0.98,1.05 0.97,1.04 0.98,1.06 0.97,1.07 0.98,1.07 0.98,1.08 0.97,1.09 0.98,1.1 0.97,1.11 0.98,1.11 0.98,1.12 0.97,1.13 0.98,1.14 0.97,1.15 0.98,1.14 0.98,1.14 0.97,1.13 0.98,1.12 0.97,1.11 0.98,1.11 0.97,1.1 0.98,1.09 0.98,1.09 0.97,1.07 0.98,1.07 0.97,1.06 0.98,1.06 0.98,1.05 0.97,1.04 0.98,1.03 0.97,1.03 0.98,1.03 0.98,1.01 0.97,1.02 0.98,1 0.97,1 0.98,0.99 0.98,0.99 0.97,0.98 0.98,0.98 0.97,0.97 0.98,0.96 0.98,0.96 0.97,0.96 0.98,0.94 0.97,0.95 0.98,0.93 0.98,0.94 0.97,0.92 0.98,0.92 0.97,0.92 0.98,0.91 0.98,0.91 0.97,0.9 0.98,0.89 0.97,0.89 0.98,0.89 0.98,0.88 0.97,0.87 0.98,0.87 0.97,0.87 0.98,0.86 0.97,0.86 0.98,0.85 0.98,0.84 0.97,0.84 0.98,0.84 0.97,0.83 0.98,0.83 0.98,0.82 0.97,0.82 0.98,0.81 0.97,0.81 0.98,0.8 0.98,0.8 0.97,0.79 0.98,0.79 0.97,0.79 0.98,0.78 0.98,0.77 0.97,0.78 0.98,0.76 0.97,0.76 0.98,0.76 0.98,0.76 0.97,0.74 0.98,0.75 0.97,0.74 0.98,0.74 0.98,0.73 0.97,0.72 0.98,0.73 0.97,0.72 0.98,0.71 0.98,0.71 0.97,0.71 0.98,0.7 0.97,0.7 0.98,0.69 0.98,0.69 0.97,0.69 0.98,0.68 0.97,0.67 0.98,0.68 0.97,0.67 0.98,0.66 0.98,0.66 0.97,0.66 0.98,0.65 0.97,0.65 0.98,0.65 0.98,0.64 0.97,0.64 0.98,0.63 0.97,0.63 0.98,0.62 0.98,0.63 0.97,0.61 0.98,0.62 0.97,0.61 0.98,0.61 0.98,0.6 0.97,0.6 0.98,0.59 0.97,0.6 0.98,0.59 0.98,0.58 0.97,0.58 0.98,0.58 0.97,0.57 0.98,0.57 0.98,0.57 0.97,0.56 0.98,0.56 0.97,0.56 0.98,0.55 0.98,0.55 0.97,0.55 0.98,0.54 0.97,0.54 0.98,0.53 0.98,0.53 0.97,0.53 0.98,0.53 0.97,0.52 0.98,0.52 0.97,0.51 0.98,0.51 0.98,0.51 0.97,0.51 0.98,0.5 0.97,0.5 0.98,0.49 0.98,0.49 0.97,0.49 0.98,0.49 0.97,0.48 0.98,0.48 0.98,0.47 0.97,0.48 0.98,0.47 0.97,0.46 0.98,0.46 0.98,0.46 0.97,0.46 0.98,0.46 0.97,0.45 0.98,0.44 0.98,0.45 0.97,0.44 0.98,0.44 0.97,0.43 0.98,0.44 0.98,0.43 0.97,0.42 0.98,0.43 0.97,0.42 0.98,0.42 0.98,0.41 0.97,0.41 0.98,0.41 0.97,0.41 0.98,0.4 0.98,0.4 0.97,0.4 0.98,0.4 0.97,0.39 0.98,0.39 0.97,0.38 0.98,0.39 0.98,0.38 0.97,0.38 0.98,0.37 0.97,0.38 0.98,0.37 0.98,0.37 0.97,0.36 0.98,0.36 0.97,0.36 0.98,0.36 0.98,0.35 0.97,0.36 0.98,0.34 0.97,0.35 0.98,0.35 0.98,0.34 0.97,0.34 0.98,0.33 0.97,0.34 0.98,0.33 0.98,0.33 0.97,0.32 0.98,0.33 0.97,0.32 0.98,0.31 0.98,0.32 0.97,0.32 0.98,0.31 0.97,0.31 0.98,0.3 0.98,0.31 0.97,0.3 0.98,0.3 0.97,0.29 0.98,0.3 0.97,0.29 0.98,0.29 0.98,0.29 0.97,0.28 0.98,0.28 0.97,0.28 0.98,0.28 0.98,0.28 0.97,0.27 0.98,0.27 0.97,0.27 0.98,0.27 0.98,0.26 0.97,0.26 0.98,0.26 0.97,0.26 0.98,0.26 0.98,0.25 0.97,0.25 0.98,0.25 0.97,0.25 0.98,0.24 0.98,0.24 0.97,0.25 0.98,0.23 0.97,0.24 0.98,0.23 0.98,0.24 0.97,0.23 0.98,0.22 0.97,0.23 0.98,0.22 0.98,0.22 0.97,0.22 0.98,0.22 0.97,0.22 0.98,0.21 0.98,0.21 0.97,0.21 0.98,0.21"
           style="fill:none;stroke:#e41a1c;stroke-width:4.25;stroke-linecap:butt;stroke-linejoin:round;stroke-miterlimit:1;stroke-dasharray:none;stroke-opacity:1"
           id="path64"
           inkscape:connector-curvature="0" /><path
           d="m 67.66,247.63 0.98,0 0.97,0 0.98,0 0.98,0 0.97,0 0.98,0 0.97,0.01 0.98,0 0.98,0 0.97,0 0.98,0.01 0.97,0 0.98,0.01 0.98,0 0.97,0.01 0.98,0.01 0.97,0 0.98,0.01 0.98,0.01 0.97,0.01 0.98,0.01 0.97,0 0.98,0.01 0.98,0.01 0.97,0.01 0.98,0.01 0.97,0.01 0.98,0.01 0.98,0.01 0.97,0.01 0.98,0.02 0.97,0.01 0.98,0.01 0.97,0.01 0.98,0.01 0.98,0.01 0.97,0.02 0.98,0.01 0.97,0.01 0.98,0.01 0.98,0.01 0.97,0.02 0.98,0.01 0.97,0.01 0.98,0.01 0.98,0.02 0.97,0.01 0.98,0.01 0.97,0.02 0.98,0.01 0.98,0.01 0.97,0.02 0.98,0.01 0.97,0.01 0.98,0.01 0.98,0.02 0.97,0.01 0.98,0.01 0.97,0.02 0.98,0.01 0.98,0.01 0.97,0.02 0.98,0.01 0.97,0.01 0.98,0.01 0.98,0.02 0.97,0.01 0.98,0.01 0.97,0.01 0.98,0.02 0.98,0.01 0.97,0.01 0.98,0.01 0.97,0.01 0.98,0.02 0.97,0.01 0.98,0.01 0.98,0.01 0.97,0.01 0.98,0.01 0.97,0.01 0.98,0.01 0.98,0.01 0.97,0.01 0.98,0.01 0.97,0.01 0.98,0.01 0.98,0.02 0.97,0.01 0.98,0.01 0.97,0.01 0.98,0.01 0.98,0.01 0.97,0.01 0.98,0.01 0.97,0 0.98,0.01 0.98,0.01 0.97,0 0.98,0.01 0.97,0 0.98,0 0.98,-0.01 0.97,0 0.98,0 0.97,-0.01 0.98,0 0.98,0 0.97,0 0.98,0 0.97,0 0.98,0 0.98,0 0.97,0 0.98,0.01 0.97,0 0.98,0 0.97,0 0.98,0 0.98,0 0.97,0 0.98,0 0.97,-0.01 0.98,0 0.98,-0.01 0.97,-0.01 0.98,-0.01 0.97,-0.01 0.98,-0.01 0.98,-0.01 0.97,-0.01 0.98,-0.01 0.97,-0.01 0.98,-0.01 0.98,-0.01 0.97,-0.02 0.98,-0.02 0.97,-0.01 0.98,-0.02 0.98,-0.02 0.97,-0.01 0.98,-0.02 0.97,-0.02 0.98,-0.02 0.98,-0.02 0.97,-0.02 0.98,-0.02 0.97,-0.02 0.98,-0.03 0.98,-0.03 0.97,-0.03 0.98,-0.03 0.97,-0.03 0.98,-0.02 0.98,-0.03 0.97,-0.02 0.98,-0.02 0.97,-0.01 0.98,-0.02 0.97,-0.01 0.98,-0.02 0.98,-0.02 0.97,-0.01 0.98,-0.02 0.97,-0.02 0.98,-0.01 0.98,-0.01 0.97,0 0.98,0 0.97,0.01 0.98,0 0.98,-0.01 0.97,-0.01 0.98,-0.02 0.97,-0.02 0.98,-0.03 0.98,-0.03 0.97,-0.03 0.98,-0.03 0.97,-0.04 0.98,-0.03 0.98,-0.02 0.97,-0.02 0.98,-0.02 0.97,-0.02 0.98,-0.03 0.98,-0.03 0.97,-0.03 0.98,-0.03 0.97,-0.03 0.98,-0.04 0.98,-0.04 0.97,-0.04 0.98,-0.04 0.97,-0.06 0.98,-0.06 0.98,-0.07 0.97,-0.06 0.98,-0.08 0.97,-0.08 0.98,-0.1 0.97,-0.09 0.98,-0.11 0.98,-0.12 0.97,-0.13 0.98,-0.14 0.97,-0.16 0.98,-0.18 0.98,-0.19 0.97,-0.2 0.98,-0.2 0.97,-0.19 0.98,-0.2 0.98,-0.2 0.97,-0.21 0.98,-0.2 0.97,-0.19 0.98,-0.17 0.98,-0.15 0.97,-0.14 0.98,-0.13 0.97,-0.13 0.98,-0.13 0.98,-0.13 0.97,-0.13 0.98,-0.14 0.97,-0.13 0.98,-0.13 0.98,-0.12 0.97,-0.11 0.98,-0.11 0.97,-0.11 0.98,-0.12 0.98,-0.11 0.97,-0.11 0.98,-0.11 0.97,-0.12 0.98,-0.11 0.98,-0.12 0.97,-0.14 0.98,-0.16 0.97,-0.17 0.98,-0.19 0.97,-0.2 0.98,-0.22 0.98,-0.22 0.97,-0.24 0.98,-0.24 0.97,-0.26 0.98,-0.27 0.98,-0.29 0.97,-0.29 0.98,-0.3 0.97,-0.31 0.98,-0.32 0.98,-0.32 0.97,-0.33 0.98,-0.34 0.97,-0.34 0.98,-0.35 0.98,-0.34 0.97,-0.35 0.98,-0.35 0.97,-0.35 0.98,-0.35 0.98,-0.35 0.97,-0.35 0.98,-0.36 0.97,-0.36 0.98,-0.36 0.98,-0.37 0.97,-0.37 0.98,-0.38 0.97,-0.38 0.98,-0.38 0.98,-0.39 0.97,-0.39 0.98,-0.39 0.97,-0.4 0.98,-0.41 0.98,-0.41 0.97,-0.41 0.98,-0.42 0.97,-0.42 0.98,-0.43 0.97,-0.43 0.98,-0.43 0.98,-0.43 0.97,-0.43 0.98,-0.44 0.97,-0.44 0.98,-0.43 0.98,-0.44 0.97,-0.43 0.98,-0.44 0.97,-0.43 0.98,-0.43 0.98,-0.42 0.97,-0.42 0.98,-0.4 0.97,-0.4 0.98,-0.38 0.98,-0.38 0.97,-0.37 0.98,-0.35 0.97,-0.35 0.98,-0.34 0.98,-0.32 0.97,-0.31 0.98,-0.3 0.97,-0.28 0.98,-0.27 0.98,-0.25 0.97,-0.25 0.98,-0.23 0.97,-0.21 0.98,-0.21 0.98,-0.19 0.97,-0.18 0.98,-0.17 0.97,-0.15 0.98,-0.14 0.98,-0.13 0.97,-0.12 0.98,-0.1 0.97,-0.1 0.98,-0.08 0.97,-0.08 0.98,-0.06 0.98,-0.04 0.97,-0.04 0.98,-0.02 0.97,-0.02 0.98,0 0.98,0.01 0.97,0.02 0.98,0.02 0.97,0.04 0.98,0.06 0.98,0.06 0.97,0.07 0.98,0.09 0.97,0.09 0.98,0.11 0.98,0.11 0.97,0.13 0.98,0.13 0.97,0.14 0.98,0.15 0.98,0.16 0.97,0.17 0.98,0.17 0.97,0.18 0.98,0.19 0.98,0.19 0.97,0.2 0.98,0.21 0.97,0.21 0.98,0.22 0.98,0.22 0.97,0.23 0.98,0.23 0.97,0.25 0.98,0.24 0.97,0.25 0.98,0.26 0.98,0.26 0.97,0.26 0.98,0.27 0.97,0.28 0.98,0.28 0.98,0.28 0.97,0.29 0.98,0.29 0.97,0.3 0.98,0.3 0.98,0.31 0.97,0.31 0.98,0.31 0.97,0.31 0.98,0.32 0.98,0.33 0.97,0.33 0.98,0.33 0.97,0.33 0.98,0.34 0.98,0.35 0.97,0.37 0.98,0.38 0.97,0.41 0.98,0.42 0.98,0.44 0.97,0.46 0.98,0.48 0.97,0.5 0.98,0.51 0.98,0.53 0.97,0.54 0.98,0.56 0.97,0.57 0.98,0.59 0.98,0.6 0.97,0.61 0.98,0.63 0.97,0.63 0.98,0.65 0.97,0.66 0.98,0.67 0.98,0.68 0.97,0.69 0.98,0.7 0.97,0.71 0.98,0.72 0.98,0.73 0.97,0.74 0.98,0.75 0.97,0.75 0.98,0.76 0.98,0.77 0.97,0.78 0.98,0.79 0.97,0.79 0.98,0.8 0.98,0.81 0.97,0.81 0.98,0.83 0.97,0.82 0.98,0.84 0.98,0.84 0.97,0.85 0.98,0.85 0.97,0.86 0.98,0.87 0.98,0.87 0.97,0.88 0.98,0.88 0.97,0.89 0.98,0.9 0.98,0.9 0.97,0.9 0.98,0.91 0.97,0.92 0.98,0.92 0.98,0.93 0.97,0.93 0.98,0.94 0.97,0.94 0.98,0.95 0.97,0.95 0.98,0.96 0.98,0.96 0.97,0.97 0.98,0.97 0.97,0.98 0.98,0.98 0.98,0.99 0.97,0.99 0.98,0.99 0.97,1 0.98,1.01 0.98,1.01 0.97,1.01 0.98,1.02 0.97,1.02 0.98,1.03 0.98,1.03 0.97,1.03 0.98,1.04 0.97,1.05 0.98,1.04 0.98,1.06 0.97,1.05 0.98,1.06 0.97,1.07 0.98,1.07 0.98,1.07 0.97,1.08 0.98,1.08 0.97,1.09 0.98,1.09 0.98,1.09 0.97,1.1 0.98,1.11 0.97,1.1 0.98,1.11 0.98,1.1 0.97,1.09 0.98,1.08 0.97,1.06 0.98,1.05 0.97,1.03 0.98,1.01 0.98,1 0.97,0.98 0.98,0.97 0.97,0.95 0.98,0.94 0.98,0.92 0.97,0.91 0.98,0.9 0.97,0.89 0.98,0.88 0.98,0.86 0.97,0.86 0.98,0.84 0.97,0.84 0.98,0.82 0.98,0.81 0.97,0.81 0.98,0.79 0.97,0.79 0.98,0.78 0.98,0.77 0.97,0.76 0.98,0.75 0.97,0.75 0.98,0.74 0.98,0.73 0.97,0.72 0.98,0.71 0.97,0.71 0.98,0.7 0.98,0.7 0.97,0.69 0.98,0.68 0.97,0.67 0.98,0.67 0.98,0.67 0.97,0.65 0.98,0.65 0.97,0.65 0.98,0.64 0.97,0.63 0.98,0.63 0.98,0.62 0.97,0.62 0.98,0.61 0.97,0.61 0.98,0.6 0.98,0.6 0.97,0.59 0.98,0.59 0.97,0.58 0.98,0.58 0.98,0.57 0.97,0.57 0.98,0.56 0.97,0.56 0.98,0.55 0.98,0.55 0.97,0.54 0.98,0.54 0.97,0.54 0.98,0.53 0.98,0.53 0.97,0.52 0.98,0.52 0.97,0.51 0.98,0.51 0.98,0.51 0.97,0.5 0.98,0.5 0.97,0.49 0.98,0.49 0.98,0.49 0.97,0.48 0.98,0.48 0.97,0.48 0.98,0.47 0.98,0.46 0.97,0.47 0.98,0.46 0.97,0.45 0.98,0.46 0.97,0.45 0.98,0.44 0.98,0.44 0.97,0.44 0.98,0.44 0.97,0.43 0.98,0.43 0.98,0.42 0.97,0.42 0.98,0.42 0.97,0.42 0.98,0.41 0.98,0.4 0.97,0.41 0.98,0.4 0.97,0.4 0.98,0.39 0.98,0.39 0.97,0.39 0.98,0.39 0.97,0.38 0.98,0.38 0.98,0.37 0.97,0.38 0.98,0.37 0.97,0.36 0.98,0.37 0.98,0.36 0.97,0.35 0.98,0.36 0.97,0.35 0.98,0.35 0.98,0.34 0.97,0.35 0.98,0.34 0.97,0.33 0.98,0.34 0.98,0.33 0.97,0.32 0.98,0.33 0.97,0.32 0.98,0.32 0.97,0.32 0.98,0.31 0.98,0.31 0.97,0.31 0.98,0.3 0.97,0.31 0.98,0.29 0.98,0.3 0.97,0.3 0.98,0.29 0.97,0.29 0.98,0.28 0.98,0.28 0.97,0.29 0.98,0.27 0.97,0.28 0.98,0.27 0.98,0.27 0.97,0.27 0.98,0.26 0.97,0.26 0.98,0.26 0.98,0.26 0.97,0.26 0.98,0.25 0.97,0.25 0.98,0.24 0.98,0.25 0.97,0.24 0.98,0.24 0.97,0.24 0.98,0.23 0.98,0.23 0.97,0.23 0.98,0.23 0.97,0.23 0.98,0.22 0.98,0.22 0.97,0.22 0.98,0.21 0.97,0.22 0.98,0.21 0.97,0.21 0.98,0.2 0.98,0.21 0.97,0.2 0.98,0.2 0.97,0.19 0.98,0.2 0.98,0.19 0.97,0.19 0.98,0.19 0.97,0.19 0.98,0.18 0.98,0.18 0.97,0.18 0.98,0.18 0.97,0.17 0.98,0.17 0.98,0.17 0.97,0.17 0.98,0.17 0.97,0.16 0.98,0.16 0.98,0.16 0.97,0.16 0.98,0.16 0.97,0.15 0.98,0.15 0.98,0.15 0.97,0.15 0.98,0.14 0.97,0.15 0.98,0.14 0.98,0.14 0.97,0.13 0.98,0.14 0.97,0.13 0.98,0.13 0.97,0.13 0.98,0.13 0.98,0.12 0.97,0.13 0.98,0.12 0.97,0.12 0.98,0.12 0.98,0.11 0.97,0.11 0.98,0.12 0.97,0.11 0.98,0.1 0.98,0.11 0.97,0.1 0.98,0.11 0.97,0.1 0.98,0.09 0.98,0.1 0.97,0.1 0.98,0.09 0.97,0.09 0.98,0.09 0.98,0.09 0.97,0.08 0.98,0.09 0.97,0.08 0.98,0.08 0.98,0.08 0.97,0.07 0.98,0.08 0.97,0.07 0.98,0.08 0.98,0.07 0.97,0.06 0.98,0.07 0.97,0.07 0.98,0.06 0.98,0.06 0.97,0.06 0.98,0.06"
           style="fill:none;stroke:#377eb8;stroke-width:4.25;stroke-linecap:butt;stroke-linejoin:round;stroke-miterlimit:1;stroke-dasharray:none;stroke-opacity:1"
           id="path66"
           inkscape:connector-curvature="0" /><path
           d="m 67.66,65.61 717.32,0 0,501.48 -717.32,0 0,-501.48 z"
           style="fill:none;stroke:#7f7f7f;stroke-width:1.05999994;stroke-linecap:round;stroke-linejoin:round;stroke-miterlimit:10;stroke-dasharray:none;stroke-opacity:1"
           id="path68"
           inkscape:connector-curvature="0" /></g></g><g
       id="g70" /><g
       id="g72" /><g
       id="g74"><text
         transform="matrix(1,0,0,-1,7.2,221.28)"
         style="font-variant:normal;font-weight:normal;font-size:32px;font-family:Helvetica;-inkscape-font-specification:Helvetica;writing-mode:lr-tb;fill:#000000;fill-opacity:1;fill-rule:nonzero;stroke:none"
         id="text76"><tspan
           x="0 17.792 35.584"
           y="0"
           sodipodi:role="line"
           id="tspan78">100</tspan></text>
<text
         transform="matrix(1,0,0,-1,7.2,388.44)"
         style="font-variant:normal;font-weight:normal;font-size:32px;font-family:Helvetica;-inkscape-font-specification:Helvetica;writing-mode:lr-tb;fill:#000000;fill-opacity:1;fill-rule:nonzero;stroke:none"
         id="text80"><tspan
           x="0 17.792 35.584"
           y="0"
           sodipodi:role="line"
           id="tspan82">150</tspan></text>
<text
         transform="matrix(1,0,0,-1,7.2,555.61)"
         style="font-variant:normal;font-weight:normal;font-size:32px;font-family:Helvetica;-inkscape-font-specification:Helvetica;writing-mode:lr-tb;fill:#000000;fill-opacity:1;fill-rule:nonzero;stroke:none"
         id="text84"><tspan
           x="0 17.792 35.584"
           y="0"
           sodipodi:role="line"
           id="tspan86">200</tspan></text>
</g><g
       id="g88" /><g
       id="g90"><path
         d="m 63.41,65.61 4.25,0"
         style="fill:none;stroke:#000000;stroke-width:1.05999994;stroke-linecap:butt;stroke-linejoin:round;stroke-miterlimit:10;stroke-dasharray:none;stroke-opacity:1"
         id="path92"
         inkscape:connector-curvature="0" /><path
         d="m 63.41,232.77 4.25,0"
         style="fill:none;stroke:#000000;stroke-width:1.05999994;stroke-linecap:butt;stroke-linejoin:round;stroke-miterlimit:10;stroke-dasharray:none;stroke-opacity:1"
         id="path94"
         inkscape:connector-curvature="0" /><path
         d="m 63.41,399.93 4.25,0"
         style="fill:none;stroke:#000000;stroke-width:1.05999994;stroke-linecap:butt;stroke-linejoin:round;stroke-miterlimit:10;stroke-dasharray:none;stroke-opacity:1"
         id="path96"
         inkscape:connector-curvature="0" /><path
         d="m 63.41,567.09 4.25,0"
         style="fill:none;stroke:#000000;stroke-width:1.05999994;stroke-linecap:butt;stroke-linejoin:round;stroke-miterlimit:10;stroke-dasharray:none;stroke-opacity:1"
         id="path98"
         inkscape:connector-curvature="0" /></g><g
       id="g100" /><g
       id="g102" /><g
       id="g104" /><g
       id="g106" /><g
       id="g108" /><g
       id="g110"><path
         d="m 67.66,61.36 0,4.25"
         style="fill:none;stroke:#000000;stroke-width:1.05999994;stroke-linecap:butt;stroke-linejoin:round;stroke-miterlimit:10;stroke-dasharray:none;stroke-opacity:1"
         id="path112"
         inkscape:connector-curvature="0" /><path
         d="m 297.01,61.36 0,4.25"
         style="fill:none;stroke:#000000;stroke-width:1.05999994;stroke-linecap:butt;stroke-linejoin:round;stroke-miterlimit:10;stroke-dasharray:none;stroke-opacity:1"
         id="path114"
         inkscape:connector-curvature="0" /><path
         d="m 541,61.36 0,4.25"
         style="fill:none;stroke:#000000;stroke-width:1.05999994;stroke-linecap:butt;stroke-linejoin:round;stroke-miterlimit:10;stroke-dasharray:none;stroke-opacity:1"
         id="path116"
         inkscape:connector-curvature="0" /><path
         d="m 784.99,61.36 0,4.25"
         style="fill:none;stroke:#000000;stroke-width:1.05999994;stroke-linecap:butt;stroke-linejoin:round;stroke-miterlimit:10;stroke-dasharray:none;stroke-opacity:1"
         id="path118"
         inkscape:connector-curvature="0" /></g><g
       id="g120" /><g
       id="g122"><text
         transform="matrix(1,0,0,-1,32.08,35.55)"
         style="font-variant:normal;font-weight:normal;font-size:32px;font-family:Helvetica;-inkscape-font-specification:Helvetica;writing-mode:lr-tb;fill:#000000;fill-opacity:1;fill-rule:nonzero;stroke:none"
         id="text124"><tspan
           x="0 17.792 35.584 53.375999"
           y="0"
           sodipodi:role="line"
           id="tspan126">1765</tspan></text>
<text
         transform="matrix(1,0,0,-1,261.43,35.55)"
         style="font-variant:normal;font-weight:normal;font-size:32px;font-family:Helvetica;-inkscape-font-specification:Helvetica;writing-mode:lr-tb;fill:#000000;fill-opacity:1;fill-rule:nonzero;stroke:none"
         id="text128"><tspan
           x="0 17.792 35.584 53.375999"
           y="0"
           sodipodi:role="line"
           id="tspan130">2000</tspan></text>
<text
         transform="matrix(1,0,0,-1,505.42,35.55)"
         style="font-variant:normal;font-weight:normal;font-size:32px;font-family:Helvetica;-inkscape-font-specification:Helvetica;writing-mode:lr-tb;fill:#000000;fill-opacity:1;fill-rule:nonzero;stroke:none"
         id="text132"><tspan
           x="0 17.792 35.584 53.375999"
           y="0"
           sodipodi:role="line"
           id="tspan134">2250</tspan></text>
<text
         transform="matrix(1,0,0,-1,749.4,35.55)"
         style="font-variant:normal;font-weight:normal;font-size:32px;font-family:Helvetica;-inkscape-font-specification:Helvetica;writing-mode:lr-tb;fill:#000000;fill-opacity:1;fill-rule:nonzero;stroke:none"
         id="text136"><tspan
           x="0 17.792 35.584 53.375999"
           y="0"
           sodipodi:role="line"
           id="tspan138">2500</tspan></text>
</g><g
       id="g140" /><g
       id="g142" /><g
       id="g144" /><g
       id="g146" /><g
       id="g148" /><g
       id="g150" /><g
       id="g152" /><g
       id="g154" /><g
       id="g156" /><g
       id="g158" /><g
       id="g160" /><g
       id="g162" /><g
       id="g164" /><g
       id="g166" /><g
       id="g168" /><g
       id="g170" /><g
       id="g172" /><g
       id="g174" /><g
       id="g176"><path
         d="m 142.99,131.6 28.8,0"
         style="fill:none;stroke:#e41a1c;stroke-width:4.25;stroke-linecap:butt;stroke-linejoin:round;stroke-miterlimit:10;stroke-dasharray:none;stroke-opacity:1"
         id="path178"
         inkscape:connector-curvature="0" /></g><g
       id="g180" /><g
       id="g182" /><g
       id="g184" /><g
       id="g186"><path
         d="m 142.99,95.6 28.8,0"
         style="fill:none;stroke:#377eb8;stroke-width:4.25;stroke-linecap:butt;stroke-linejoin:round;stroke-miterlimit:10;stroke-dasharray:none;stroke-opacity:1"
         id="path188"
         inkscape:connector-curvature="0" /></g><g
       id="g190" /><g
       id="g192"><text
         transform="matrix(1,0,0,-1,177.55,120.11)"
         style="font-variant:normal;font-weight:normal;font-size:32px;font-family:Helvetica;-inkscape-font-specification:Helvetica;writing-mode:lr-tb;fill:#000000;fill-opacity:1;fill-rule:nonzero;stroke:none"
         id="text194"><tspan
           x="0 26.656 44.448002 62.240002 80.031998 88.928001 104.928 120.928 136.92799 145.82401 163.616 190.272 199.168 216.96001 234.752"
           y="0"
           sodipodi:role="line"
           id="tspan196">mean system age</tspan></text>
</g><g
       id="g198" /><g
       id="g200"><text
         transform="matrix(1,0,0,-1,177.55,84.11)"
         style="font-variant:normal;font-weight:normal;font-size:32px;font-family:Helvetica;-inkscape-font-specification:Helvetica;writing-mode:lr-tb;fill:#000000;fill-opacity:1;fill-rule:nonzero;stroke:none"
         id="text202"><tspan
           x="0 26.656 44.448002 62.240002 80.031998 88.928001 106.72 124.512 140.51199 156.51199 179.136 196.92799 207.584 225.37601 234.272 243.168 253.504 271.29599 289.08801 305.08801 312.19199 321.08801 329.98401 338.88 345.98401 372.64001"
           y="0"
           sodipodi:role="line"
           id="tspan204">mean backward transit time</tspan></text>
</g><g
       id="g206" /><g
       id="g208" /><g
       id="g210" /><g
       id="g212" /><g
       id="g214" /><g
       id="g216" /><g
       id="g218" /><g
       id="g220" /><g
       id="g222" /><g
       id="g224" /><g
       id="g226" /><g
       id="g228" /><flowRoot
       transform="matrix(0,2.0245764,2.1986044,0,-2220.8215,-5761.5359)"
       style="font-style:normal;font-variant:normal;font-weight:normal;font-stretch:normal;font-size:32px;line-height:125%;font-family:Georgia;-inkscape-font-specification:Georgia;letter-spacing:0px;word-spacing:0px;fill:#000000;fill-opacity:1;stroke:none"
       id="flowRoot123800-9-7"
       xml:space="preserve"><flowRegion
         id="flowRegion123802-2-8"><rect
           style="font-size:32px"
           y="973.74072"
           x="2934.4131"
           height="80.615746"
           width="366.22583"
           id="rect123804-0-4" /></flowRegion><flowPara
         id="flowPara123806-2-5">Age (yr)</flowPara></flowRoot></g></svg>